<mxfile host="app.diagrams.net" modified="2023-03-12T08:37:44.834Z" agent="5.0 (Macintosh; Intel Mac OS X 10_15_7) AppleWebKit/537.36 (KHTML, like Gecko) Chrome/110.0.0.0 Safari/537.36 Edg/110.0.1587.63" etag="Atf6KN4wF7uA5K7W0-vW" version="21.0.6" type="github">
  <diagram name="第 1 页" id="V3kNBIoFY9e7nrS3e4fy">
    <mxGraphModel dx="1687" dy="974" grid="1" gridSize="10" guides="1" tooltips="1" connect="1" arrows="1" fold="1" page="1" pageScale="1" pageWidth="827" pageHeight="1169" math="0" shadow="0">
      <root>
        <mxCell id="0" />
        <mxCell id="1" parent="0" />
        <mxCell id="EMuQzu-kI_kq3lOzayKD-2" value="App" style="rounded=0;whiteSpace=wrap;html=1;verticalAlign=top;fontSize=16;" vertex="1" parent="1">
          <mxGeometry x="38" y="300" width="642" height="250" as="geometry" />
        </mxCell>
        <mxCell id="EMuQzu-kI_kq3lOzayKD-3" value="App Core" style="rounded=0;whiteSpace=wrap;html=1;fontSize=16;fillColor=#f9f7ed;strokeColor=#36393d;" vertex="1" parent="1">
          <mxGeometry x="60" y="450" width="600" height="80" as="geometry" />
        </mxCell>
        <mxCell id="EMuQzu-kI_kq3lOzayKD-4" value="Plugin 1" style="rounded=0;whiteSpace=wrap;html=1;fontSize=16;fillColor=#eeeeee;strokeColor=#36393d;" vertex="1" parent="1">
          <mxGeometry x="60" y="350" width="120" height="60" as="geometry" />
        </mxCell>
        <mxCell id="EMuQzu-kI_kq3lOzayKD-5" value="Plugin 2" style="rounded=0;whiteSpace=wrap;html=1;fontSize=16;fillColor=#eeeeee;strokeColor=#36393d;" vertex="1" parent="1">
          <mxGeometry x="220" y="350" width="120" height="60" as="geometry" />
        </mxCell>
        <mxCell id="EMuQzu-kI_kq3lOzayKD-6" value="Plugin 3" style="rounded=0;whiteSpace=wrap;html=1;fontSize=16;fillColor=#eeeeee;strokeColor=#36393d;" vertex="1" parent="1">
          <mxGeometry x="380" y="350" width="120" height="60" as="geometry" />
        </mxCell>
        <mxCell id="EMuQzu-kI_kq3lOzayKD-7" value="Plugin n..." style="rounded=0;whiteSpace=wrap;html=1;fontSize=16;fillColor=#eeeeee;strokeColor=#36393d;" vertex="1" parent="1">
          <mxGeometry x="540" y="350" width="120" height="60" as="geometry" />
        </mxCell>
      </root>
    </mxGraphModel>
  </diagram>
</mxfile>
